<svg width="160" height="43" viewBox="0 0 160 43" fill="none" xmlns="http://www.w3.org/2000/svg">
<g clip-path="url(#clip0_1_788)">
<path d="M50.8482 15.5001V36.5318H45.8694V15.5001H50.8482Z" fill="#0074D0"/>
<path d="M58.5972 30.8288C58.5972 32.1961 59.0498 32.9323 60.6046 32.9323C62.3313 32.9323 63.4628 32.3792 64.2256 31.4598V21.7056H69.2337V36.5045H64.2256V35.5306C63.1778 36.2902 61.7655 36.7927 60.2107 36.7927C55.7683 36.7927 53.5933 34.584 53.5933 31.3235V21.7017H58.5972V30.8249V30.8288Z" fill="#0074D0"/>
<path d="M70.7549 29.1459C70.7549 23.5988 74.292 21.4173 79.6354 21.4173C81.4459 21.4173 83.8473 21.9432 85.092 22.6015L83.9311 26.3334C82.7157 25.7023 80.9346 25.3362 79.6312 25.3362C76.9155 25.3362 75.784 26.31 75.784 29.1498C75.784 31.9896 76.9155 32.9362 79.6019 32.9362C80.8173 32.9362 82.7115 32.4649 84.1574 31.8845L85.1171 35.6981C83.5623 36.3019 81.4124 36.8551 79.1786 36.8551C74.2878 36.8551 70.7507 34.697 70.7507 29.1537L70.7549 29.1459Z" fill="#0074D0"/>
<path d="M91.3155 36.4538L84.7819 21.7056H89.7606L93.3229 30.4081L96.2356 21.7056H101.126L95.301 38.9002C94.4251 41.4245 92.2458 42.449 89.7271 42.449C88.7967 42.449 87.8035 42.2893 86.3618 41.8686L87.0994 37.9536C88.0047 38.2964 88.7674 38.4016 89.22 38.4016C90.0121 38.4016 90.7204 38.3237 90.976 37.5095L91.3155 36.4577V36.4538Z" fill="#0074D0"/>
<path d="M101.038 29.1459C101.038 23.5988 104.575 21.4173 109.919 21.4173C111.729 21.4173 114.131 21.9432 115.375 22.6015L114.215 26.3334C112.999 25.7023 111.214 25.3362 109.915 25.3362C107.199 25.3362 106.067 26.31 106.067 29.1498C106.067 31.9896 107.199 32.9362 109.885 32.9362C111.101 32.9362 112.995 32.4649 114.441 31.8845L115.401 35.6981C113.846 36.3019 111.696 36.8551 109.462 36.8551C104.567 36.8551 101.034 34.697 101.034 29.1537L101.038 29.1459Z" fill="#0074D0"/>
<path d="M125.559 26.6762C125.362 25.8075 124.88 25.2816 123.611 25.2816C121.829 25.2816 119.876 25.7023 118.292 26.7268L116.511 23.3884C117.953 22.3639 120.614 21.4173 124.009 21.4173C129.268 21.4173 130.513 24.5454 130.513 27.6228V36.5357H126.611L126.016 35.5891C124.885 36.4305 122.341 36.8512 121.008 36.8512C117.446 36.8512 115.774 34.7476 115.774 32.2234C115.774 28.9356 119.763 26.8087 125.559 26.6762ZM125.505 31.4326V30.0419C125.421 30.0146 125.304 30.0146 125.107 30.0146C122.617 30.0925 120.865 30.5405 120.865 31.9078C120.865 32.7493 121.318 32.9869 122.081 32.9869C123.326 32.9869 125.052 32.6441 125.417 31.9078C125.471 31.7754 125.501 31.6196 125.501 31.4326H125.505Z" fill="#0074D0"/>
<path d="M136.615 21.7329L137.067 22.8625C137.889 21.9432 139.301 21.4173 140.999 21.4173C141.904 21.4173 143.035 21.5498 144.024 21.9705L144.196 26.4659C143.207 25.8075 142.105 25.4686 140.944 25.4686C139.389 25.4686 138.371 25.9672 137.721 26.7307V36.5357H132.742V21.7367H136.615V21.7329Z" fill="#0074D0"/>
<path d="M159.69 35.0086C157.569 36.4032 155.193 36.82 152.733 36.82C148.492 36.82 144.448 35.1099 144.448 29.329C144.448 23.9143 147.616 21.4134 152.339 21.4134C157.431 21.4134 160.004 24.4363 160.004 29.2472C160.004 29.7458 159.975 30.1938 159.95 30.6924H149.544C149.967 32.348 151.069 33.0336 152.964 33.0336C154.858 33.0336 156.304 32.7181 158.114 31.7715L159.698 35.0047L159.69 35.0086ZM154.883 27.0424C154.514 25.753 153.693 25.2037 152.251 25.2037C150.809 25.2037 149.959 25.7569 149.594 27.0424H154.883Z" fill="#0074D0"/>
<path d="M36.8002 23.2755C34.8514 20.5175 31.922 18.7216 28.7202 18.0166C28.6238 17.9776 27.5928 17.8179 27.5928 17.8179C24.479 17.3933 21.1933 17.9854 18.3561 19.715C12.5475 23.256 10.7035 30.2951 13.9137 35.8812C12.9792 32.7337 14.27 29.2589 17.3628 27.3735C21.2017 25.0323 26.3523 26.0296 28.8668 29.5939C31.3856 33.1622 30.3127 37.9497 26.478 40.287C24.5963 41.4323 22.4003 41.7751 20.3551 41.4089C22.2746 42.1841 24.37 42.5386 26.4655 42.4217C28.7118 42.2971 30.9539 41.6426 32.9655 40.4116C33.3972 40.1467 33.8079 39.8663 34.1935 39.5663C39.3273 35.5929 40.5469 28.585 36.796 23.2716L36.8002 23.2755ZM30.5725 25.2076C28.8627 26.6528 26.5199 25.4998 26.5199 25.4998C18.7081 21.7484 13.5324 29.2706 13.5324 29.2706C13.5324 29.2706 14.4334 22.1964 21.34 19.8552C25.1956 18.5502 28.0999 19.3956 29.9188 20.4006C31.7711 21.4251 32.1693 23.8598 30.5767 25.2076H30.5725Z" fill="#0074D0"/>
<path d="M18.4274 41.2959L18.5615 40.2558C18.7333 38.9547 19.165 37.7043 19.8439 36.5473C21.1892 34.2607 23.3894 32.5389 26.0423 31.7092L27.0732 31.3858L26.9643 32.3909C26.8218 33.7309 26.4111 34.9424 25.6693 36.2006C24.3911 38.3821 22.195 40.0688 19.4877 40.9531L18.4232 41.2998L18.4274 41.2959ZM25.3759 33.3647C23.5571 34.1789 22.0567 35.5033 21.0761 37.1706C20.6821 37.8406 20.3846 38.5418 20.1876 39.2703C22.0316 38.4366 23.5193 37.1511 24.4455 35.5735C24.8814 34.8333 25.1873 34.1127 25.3759 33.3647Z" fill="#0074D0"/>
<path d="M18.4567 41.2881L17.9538 40.3493C17.3252 39.1729 16.948 37.9108 16.8307 36.5941C16.6002 33.9958 17.4258 31.4365 19.1524 29.3836L19.823 28.5889L20.3259 29.4848C21.0006 30.6808 21.3694 31.9 21.4951 33.3297C21.7131 35.8072 20.8749 38.3354 19.1357 40.4545L18.4525 41.2881H18.4567ZM19.5715 31.1132C18.5364 32.722 18.0628 34.5918 18.2304 36.4889C18.2975 37.2485 18.4651 37.9887 18.7249 38.6976C19.7727 37.0576 20.2546 35.2268 20.0996 33.4349C20.0241 32.5934 19.8565 31.8377 19.5715 31.1132Z" fill="#0074D0"/>
<path d="M10.691 30.2132V4.96274C10.691 4.88484 10.691 4.79913 10.6784 4.72123C10.5527 2.08788 8.21835 -0.00398445 5.35177 -0.00398445C2.4852 -0.00398445 0.1383 2.09178 0.0125727 4.72512C0 4.80303 0 4.88873 0 4.96664V30.2132C0 30.1548 0 30.0963 0.00838179 30.0457V30.2132C0.00838179 30.2132 0 30.2249 0 30.2327V30.2444C0 30.2444 0 30.2716 0.00838179 30.2833C0 30.3418 0 30.3924 0 30.4508C0 37.077 5.77505 42.445 12.9038 42.445C14.928 42.445 16.8432 42.0165 18.5447 41.2452C13.9263 39.4221 10.6868 35.1682 10.6868 30.2093L10.691 30.2132ZM9.27445 17.1361C9.27445 18.9436 7.69867 20.4083 5.7541 20.4083H5.28472C3.34014 20.4083 1.49615 18.9436 1.49615 17.1361V4.90431C1.49615 3.09681 3.34014 1.63211 5.28472 1.63211H5.7541C7.69867 1.63211 9.27445 3.09681 9.27445 4.90431V17.1322V17.1361Z" fill="#0074D0"/>
</g>
<defs>
<clipPath id="clip0_1_788">
<rect width="160" height="42.449" fill="white"/>
</clipPath>
</defs>
</svg>
